<svg width="64" height="64" viewBox="0 0 64 64" fill="none" xmlns="http://www.w3.org/2000/svg">
  <circle cx="32" cy="32" r="26" fill="#1F2D8A" />
  <path
    d="M39.556 42.407c-3.557-.946-7.271-4.591-9.019-8.064-.609-1.214-.287-2.609.801-3.335l1.749-1.166a1.429 1.429 0 0 1 1.995.423l1.22 1.888c.334.516.27 1.195-.152 1.603l-.914.879a12.129 12.129 0 0 0 3.781 3.781l.879-.914a1.289 1.289 0 0 1 1.603-.153l1.888 1.221a1.428 1.428 0 0 1 .422 1.994l-1.166 1.749c-.726 1.089-2.121 1.41-3.335.801Z"
    stroke="white"
    stroke-width="2.8"
    stroke-linecap="round"
    stroke-linejoin="round"
  />
</svg>
