<svg width="96" height="96" viewBox="0 0 96 96" fill="none" xmlns="http://www.w3.org/2000/svg">
  <circle cx="48" cy="48" r="40" fill="#1F2D8A" />
  <path
    d="M58.611 62.798c-6.293-1.673-12.863-8.12-15.954-14.262-1.078-2.143-.507-4.606 1.417-5.89l3.09-2.06a2.526 2.526 0 0 1 3.527.746l2.152 3.336a2.527 2.527 0 0 1-.358 3.164l-1.612 1.553a21.45 21.45 0 0 0 6.689 6.688l1.552-1.611a2.527 2.527 0 0 1 3.164-.359l3.337 2.153a2.526 2.526 0 0 1 .744 3.528l-2.058 3.088c-1.283 1.925-3.747 2.496-5.89 1.418Z"
    stroke="white"
    stroke-width="4.2"
    stroke-linecap="round"
    stroke-linejoin="round"
  />
</svg>
